<?xml version="1.0" encoding="iso-8859-1"?>
<!-- Uploaded to: SVG Repo, www.svgrepo.com, Generator: SVG Repo Mixer Tools -->
<svg version="1.1" id="Layer_1" xmlns="http://www.w3.org/2000/svg" xmlns:xlink="http://www.w3.org/1999/xlink" 
	 viewBox="0 0 480.006 480.006" xml:space="preserve">
<path style="fill:#992817;" d="M472.006,472.003h-304v-16c0-8.84,7.16-16,16-16h272c8.84,0,16,7.16,16,16V472.003z"/>
<path style="fill:#FCB641;" d="M336.006,112.003h-128v-16c0-8.84,7.16-16,16-16h96c8.84,0,16,7.16,16,16V112.003z"/>
<g>
	<path style="fill:#E65039;" d="M368.006,144.003h-192v-16c0-8.84,7.16-16,16-16h160c8.84,0,16,7.16,16,16V144.003z"/>
	<polygon style="fill:#E65039;" points="456.006,352.003 352.006,352.003 344.006,288.003 424.006,288.003 	"/>
</g>
<polygon style="fill:#FCB641;" points="456.006,440.003 360.006,440.003 352.006,352.003 456.006,352.003 "/>
<path style="fill:#BD8931;" d="M424.006,440.003h-32v-40c0-8.84,7.16-16,16-16l0,0c8.84,0,16,7.16,16,16V440.003z"/>
<path style="fill:#E65039;" d="M320.006,80.003h-96V48.971c0-10.864,4.312-21.28,12-28.96v-0.008c7.68-7.68,18.096-12,28.96-12
	h14.064c10.864,0,21.28,4.312,28.96,12h0.016c7.68,7.68,12,18.096,12,28.96V80.003z"/>
<rect x="200.006" y="144.003" style="fill:#FCB641;" width="144" height="64"/>
<polygon style="fill:#E65039;" points="184.006,440.003 360.006,440.003 352.43,368.003 191.582,368.003 "/>
<polygon style="fill:#FCB641;" points="200.006,288.003 191.582,368.003 352.43,368.003 344.006,288.003 "/>
<rect x="200.006" y="208.003" style="fill:#E65039;" width="144" height="80"/>
<path id="SVGCleanerId_0" style="fill:#AD3C2B;" d="M296.006,440.003h-48v-48c0-13.256,10.744-24,24-24l0,0
	c13.256,0,24,10.744,24,24V440.003z"/>
<g>
	<path id="SVGCleanerId_0_1_" style="fill:#AD3C2B;" d="M296.006,440.003h-48v-48c0-13.256,10.744-24,24-24l0,0
		c13.256,0,24,10.744,24,24V440.003z"/>
</g>
<path d="M464.006,433.475v-81.472c0-0.112-0.056-0.2-0.064-0.312c-0.032-0.832-0.2-1.648-0.496-2.44
	c-0.064-0.176-0.104-0.36-0.184-0.528c-0.04-0.096-0.056-0.2-0.104-0.296l-32-64c-1.352-2.712-4.12-4.424-7.152-4.424h-72v-128h16
	c4.416,0,8-3.576,8-8v-16c0-13.232-10.768-24-24-24h-8v-8c0-10.416-6.712-19.216-16-22.528V48.971
	c0-13.08-5.096-25.376-14.344-34.624c-9.24-9.248-21.536-14.344-34.624-14.344h-14.072c-13.08,0-25.376,5.096-34.632,14.344
	c-9.24,9.256-14.328,21.552-14.328,34.624v24.504c-9.288,3.312-16,12.112-16,22.528v8h-8c-13.232,0-24,10.768-24,24v16
	c0,4.424,3.584,8,8,8h16v135.576l-8.376,79.592l-6.96,66.104c-8.672,2.808-15.136,10.368-16.352,19.64
	c-0.816-0.72-1.68-1.568-2.672-2.56c-4.368-4.376-10.352-10.352-21.672-10.352s-17.304,5.976-21.664,10.336
	c-3.936,3.928-5.864,5.664-10.376,5.664c-4.496,0-6.416-1.736-10.336-5.656c-4.36-4.368-10.336-10.344-21.648-10.344
	s-17.288,5.976-21.648,10.344c-3.92,3.92-5.832,5.656-10.32,5.656s-6.408-1.736-10.328-5.656
	c-4.368-4.368-10.336-10.344-21.648-10.344c-4.416,0-8,3.576-8,8s3.584,8,8,8c4.488,0,6.408,1.736,10.328,5.656
	c4.36,4.368,10.336,10.344,21.648,10.344s17.28-5.976,21.648-10.344c3.92-3.92,5.84-5.656,10.328-5.656
	c4.496,0,6.416,1.736,10.336,5.656c4.36,4.368,10.328,10.344,21.64,10.344c11.32,0,17.304-5.976,21.672-10.344
	c3.928-3.92,5.856-5.656,10.368-5.656s6.44,1.736,10.368,5.664c3.2,3.192,7.28,7.224,13.664,9.176v1.16c0,4.424,3.584,8,8,8h304
	c4.416,0,8-3.576,8-8v-16C480.006,445.587,473.294,436.787,464.006,433.475z M408.006,376.003c-13.232,0-24,10.768-24,24v32H367.31
	l-6.544-72h87.24v72h-16v-32C432.006,386.771,421.238,376.003,408.006,376.003z M416.006,400.003v32h-16v-32c0-4.416,3.592-8,8-8
	S416.006,395.587,416.006,400.003z M419.062,296.003l24,48H359.07l-6-48H419.062z M299.558,376.003h45.672l5.896,56h-47.12v-40
	C304.006,386.147,302.31,380.731,299.558,376.003z M200.47,360.003l6.736-64h129.6l6.736,64H200.47z M288.006,392.003v40h-32v-40
	c0-8.824,7.176-16,16-16S288.006,383.179,288.006,392.003z M244.454,376.003c-2.752,4.728-4.448,10.144-4.448,16v40h-47.112
	l5.896-56H244.454z M208.006,280.003v-64h128v64H208.006z M232.006,48.971c0-8.808,3.432-17.08,9.664-23.312
	c6.216-6.224,14.496-9.656,23.304-9.656h14.072c8.808,0,17.088,3.432,23.312,9.656c6.216,6.232,9.648,14.512,9.648,23.312v23.032
	h-32v-16c0-4.424-3.584-8-8-8s-8,3.576-8,8v16h-32V48.971z M216.006,96.003c0-4.416,3.592-8,8-8h96c4.408,0,8,3.584,8,8v8h-112
	V96.003z M184.006,128.003c0-4.416,3.592-8,8-8h16h128h16c4.408,0,8,3.584,8,8v8h-16h-144h-16V128.003z M336.006,152.003v48h-128
	v-48H336.006z M464.006,464.003h-288v-8c0-4.416,3.592-8,8-8h64h48h64h32h32h32c4.408,0,8,3.584,8,8V464.003z"/>
<path d="M272.006,312.003c-4.416,0-8,3.576-8,8v16c0,4.424,3.584,8,8,8s8-3.576,8-8v-16
	C280.006,315.579,276.422,312.003,272.006,312.003z"/>
<path d="M272.006,232.003c-4.416,0-8,3.576-8,8v16c0,4.424,3.584,8,8,8s8-3.576,8-8v-16
	C280.006,235.579,276.422,232.003,272.006,232.003z"/>
<path d="M272.006,192.003c4.416,0,8-3.576,8-8v-16c0-4.424-3.584-8-8-8s-8,3.576-8,8v16
	C264.006,188.427,267.59,192.003,272.006,192.003z"/>
<path d="M5.03,23.435l160,64c0.976,0.392,1.984,0.568,2.976,0.568c3.176,0,6.176-1.896,7.432-5.032
	c1.64-4.104-0.352-8.76-4.456-10.4l-160-64c-4.128-1.648-8.76,0.352-10.4,4.464C-1.066,17.139,0.934,21.795,5.03,23.435z"/>
<path d="M8.006,248.003c0.992,0,1.992-0.176,2.968-0.568l160-64c4.104-1.64,6.096-6.296,4.456-10.4
	c-1.64-4.112-6.288-6.104-10.4-4.464l-160,64c-4.104,1.64-6.096,6.296-4.456,10.4C1.83,246.107,4.838,248.003,8.006,248.003z"/>
</svg>